<svg xmlns="http://www.w3.org/2000/svg" viewBox="0 0 512 512" width="512" height="512">
  <rect width="512" height="512" rx="96" fill="#0E7C66"/>
  <g fill="#ffffff">
    <path d="M128 176c0-13 11-24 24-24h208c13 0 24 11 24 24v16H128v-16z"/>
    <path d="M120 208h272l-16 168c-1 17-15 30-32 30H168c-17 0-31-13-32-30l-16-168zm88 56a16 16 0 0 0-32 0v72a16 16 0 0 0 32 0v-72zm64 0a16 16 0 0 0-32 0v72a16 16 0 0 0 32 0v-72zm64 0a16 16 0 0 0-32 0v72a16 16 0 0 0 32 0v-72z"/>
    <circle cx="256" cy="120" r="20"/>
  </g>
</svg>
